<?xml version="1.0" encoding="utf-8" ?>
<svg xmlns="http://www.w3.org/2000/svg" xmlns:xlink="http://www.w3.org/1999/xlink" width="512" height="512">
	<path fill="#F6CD92" transform="scale(0.666667 0.666667)" d="M383.33 173.691C383.527 173.919 383.799 174.099 383.919 174.375C384.259 175.153 383.926 178.126 383.928 179.082L384.031 198.969C384.094 201.907 384.507 205.02 384.427 207.932C384.414 208.367 384.385 208.459 384.314 208.834C375.207 215.4 365.112 220.739 355.551 226.639L344.803 233.408C342.981 234.556 341.072 235.988 339.115 236.87L339.111 235.966C338.196 236.671 337.34 237.137 336.375 237.75C335.68 238.192 334.719 238.479 334.148 238.966C333.63 239.409 334.074 239.116 333.48 239.485L332.25 240.283L330.935 240.009L331.72 238.526C332.578 238.337 332.408 238.323 332.881 237.664C331.259 236.038 329.544 236.771 327.872 235.457L327.142 234.867C326.368 234.408 325.657 233.795 324.892 233.367L324.199 233.039L324.58 232.494L324.967 232.009C323.611 230.458 322.344 229.407 321.17 227.633C320.51 227.408 320.153 227.191 319.682 226.689C318.971 225.931 318.3 226.412 317.303 225.862C316.225 224.05 316.128 222.404 316.444 220.334L316.525 219.945L315.664 219.162L314.879 219.87L314.207 219.802L314.482 216.734L383.33 173.691Z"/>
	<defs>
		<linearGradient id="gradient_0" gradientUnits="userSpaceOnUse" x1="412.228" y1="323.931" x2="221.271" y2="499.54999">
			<stop offset="0" stop-color="#F3D2A0"/>
			<stop offset="1" stop-color="#F0F7FF"/>
		</linearGradient>
	</defs>
	<path fill="url(#gradient_0)" transform="scale(0.666667 0.666667)" d="M379.835 587.154C377.785 586.68 375.628 585.043 373.866 583.924L362.882 576.849L322.937 551.438L189.834 466.942L189.798 296.262C192.497 293.525 196.139 291.791 199.354 289.74L222.766 275.116L314.482 216.734L314.207 219.802L314.879 219.87L315.664 219.162L316.525 219.945L316.444 220.334C316.128 222.404 316.225 224.05 317.303 225.862C318.3 226.412 318.971 225.931 319.682 226.689C320.153 227.191 320.51 227.408 321.17 227.633C322.344 229.407 323.611 230.458 324.967 232.009L324.58 232.494L324.199 233.039L324.892 233.367C325.657 233.795 326.368 234.408 327.142 234.867L327.872 235.457C329.544 236.771 331.259 236.038 332.881 237.664C332.408 238.323 332.578 238.337 331.72 238.526L330.935 240.009L332.25 240.283L333.48 239.485C334.074 239.116 333.63 239.409 334.148 238.966C334.719 238.479 335.68 238.192 336.375 237.75C337.34 237.137 338.196 236.671 339.111 235.966L339.115 236.87L230.528 306.874L230.989 446.32C234.179 448.675 237.489 450.588 240.812 452.724L263.438 467.033L339.383 514.68L367.365 532.363C371.712 535.238 377.177 538.356 380.692 542.225C381.83 544.066 381.574 546.662 381.775 548.777L382.386 576.835C382.47 580.205 383.083 584.076 381.147 587.015C380.487 587.29 380.538 587.436 379.835 587.154ZM380.692 542.225C380.479 547.648 380.766 585.697 379.835 587.154C380.538 587.436 380.487 587.29 381.147 587.015C383.083 584.076 382.47 580.205 382.386 576.835L381.775 548.777C381.574 546.662 381.83 544.066 380.692 542.225Z"/>
	<path fill="#262528" fill-opacity="0.98823529" transform="scale(0.666667 0.666667)" d="M380.692 542.225C381.83 544.066 381.574 546.662 381.775 548.777L382.386 576.835C382.47 580.205 383.083 584.076 381.147 587.015C380.487 587.29 380.538 587.436 379.835 587.154C380.766 585.697 380.479 547.648 380.692 542.225Z"/>
	<path fill="#E69159" transform="scale(0.666667 0.666667)" d="M383.33 173.691C384.784 173.18 385.403 173.314 386.796 173.959C390.923 175.874 394.87 179.314 398.684 181.849L419.368 194.867L479.92 232.221L543.001 273.187L571.432 290.689C574.04 292.37 577.063 293.833 579.209 296.096L579.414 328.946L579.425 389.163L579.418 443.147L579.424 458.832C579.423 460.69 579.746 463.385 579.122 465.13C576.4 467.303 573.391 468.977 570.46 470.842L556.969 479.39L519.61 503.144L422.943 564.587L392.372 584.289C390.823 585.26 389.358 586.183 387.562 586.605C387.191 585.212 388.014 583.881 388.277 582.51C388.53 581.192 388.453 579.821 388.419 578.486C387.795 576.905 387.796 575.44 386.887 573.938C385.917 574.278 385.089 574.565 384.352 575.315L383.848 575.848L383.085 575.437L382.386 576.835L381.775 548.777L382.683 552.938C383.862 553.544 384.613 554.547 385.335 555.633L385.688 556.172L386.438 556.217L387.188 557.271L387.619 549.937C387.998 548.378 387.968 547.085 387.947 545.451L388.317 544.981C388.533 541.633 389.83 540.624 392.335 538.649C396.562 535.319 401.828 532.649 406.407 529.774L434.29 512.12L511.917 463.238L525.506 454.812C529.699 452.286 534.403 450.135 537.923 446.689C538.807 443.482 538.335 438.619 538.347 435.278L538.116 404.91L537.993 339.89L538.06 306.504C534.331 303.711 530.044 301.488 526.087 299L495.702 280.038L417.416 229.899L400.115 218.902L391.879 213.323C389.586 211.688 387.125 209.387 384.314 208.834C384.385 208.459 384.414 208.367 384.427 207.932C384.507 205.02 384.094 201.907 384.031 198.969L383.928 179.082C383.926 178.126 384.259 175.153 383.919 174.375C383.799 174.099 383.527 173.919 383.33 173.691ZM381.775 548.777L382.386 576.835L383.085 575.437L383.848 575.848L384.352 575.315C385.089 574.565 385.917 574.278 386.887 573.938C387.796 575.44 387.795 576.905 388.419 578.486L388.317 544.981L387.947 545.451C387.968 547.085 387.998 548.378 387.619 549.937L387.188 557.271L386.438 556.217L385.688 556.172L385.335 555.633C384.613 554.547 383.862 553.544 382.683 552.938L381.775 548.777Z"/>
	<path fill="#222425" fill-opacity="0.21960784" transform="scale(0.666667 0.666667)" d="M381.775 548.777L382.683 552.938C383.862 553.544 384.613 554.547 385.335 555.633L385.688 556.172L386.438 556.217L387.188 557.271L387.619 549.937C387.998 548.378 387.968 547.085 387.947 545.451L388.317 544.981L388.419 578.486C387.795 576.905 387.796 575.44 386.887 573.938C385.917 574.278 385.089 574.565 384.352 575.315L383.848 575.848L383.085 575.437L382.386 576.835L381.775 548.777Z"/>
	<path fill="#E69159" transform="scale(0.666667 0.666667)" d="M383.939 378.404C387.116 379.226 390.334 381.83 393.155 383.518L412.125 394.865L442.788 413.021C448.395 416.348 454.769 419.45 459.775 423.613C455.422 427.424 450.288 430.326 445.407 433.405L423.529 447.155L398.259 463.534C393.965 466.304 389.709 469.263 385.245 471.741L385.118 471.835L383.939 378.404Z"/>
	<defs>
		<linearGradient id="gradient_1" gradientUnits="userSpaceOnUse" x1="396.71701" y1="429.052" x2="316.07999" y2="404.384">
			<stop offset="0" stop-color="#FFAA45"/>
			<stop offset="1" stop-color="#FFC45D"/>
		</linearGradient>
	</defs>
	<path fill="url(#gradient_1)" transform="scale(0.666667 0.666667)" d="M385.118 471.835C384.799 471.925 384.722 471.964 384.351 471.978C382.303 472.058 370.709 463.482 368.302 461.93L330.035 437.105L317.339 429.266C314.234 427.405 311.27 425.945 308.495 423.563L308.809 423.26C312.826 419.591 318.312 417.104 322.989 414.332L343.198 402.123C354.65 395.156 365.823 387.171 377.558 380.737C379.489 379.678 381.686 378.34 383.939 378.404L385.118 471.835Z"/>
	<path fill="#EEEEED" transform="scale(0.666667 0.666667)" d="M384.553 251.943C388.796 253.809 392.859 257.286 396.79 259.799L429.8 280.901L448.884 292.517L491.771 319.737L508.952 330.529C513.103 333.111 517.302 335.344 521.041 338.527C521.511 341.075 521.256 343.899 521.305 346.5L521.332 363.676L521.17 389.268C519.974 389.38 516.993 387.405 515.89 386.725L503.798 378.553L482.576 364.851L408.933 317.688C400.952 312.554 393.041 306.394 384.664 302.024C380.823 303.524 377.349 306.419 373.875 308.647L355.731 320.132C346.45 326.058 247.918 389.047 247.36 388.993L247.86 338.618C252.168 334.874 258.003 331.952 262.855 328.87L297.349 307.045L358.017 268.604L375.02 257.788C378.185 255.776 381.209 253.667 384.553 251.943Z"/>
</svg>
